<svg width="1920" height="1080" viewBox="0 0 1920 1080" fill="none" xmlns="http://www.w3.org/2000/svg">
<path fill-rule="evenodd" clip-rule="evenodd" d="M1920 248.667L1884.8 227.944C1849.6 207.222 1777.6 165.778 1707.2 138.148C1635.2 110.519 1564.8 96.7037 1492.8 110.519C1422.4 124.333 1350.4 165.778 1280 165.778C1209.6 165.778 1137.6 124.333 1067.2 110.519C995.2 96.7037 924.8 110.519 852.8 151.963C782.4 193.407 710.4 262.481 640 276.296C569.6 290.111 497.6 248.667 427.2 207.222C355.2 165.778 284.8 124.333 212.8 151.963C142.4 179.593 70.4 276.296 35.2 324.648L-2.86102e-05 373V-1.90735e-05H35.2C70.4 -1.90735e-05 142.4 -1.90735e-05 212.8 -1.90735e-05C284.8 -1.90735e-05 355.2 -1.90735e-05 427.2 -1.90735e-05C497.6 -1.90735e-05 569.6 -1.90735e-05 640 -1.90735e-05C710.4 -1.90735e-05 782.4 -1.90735e-05 852.8 -1.90735e-05C924.8 -1.90735e-05 995.2 -1.90735e-05 1067.2 -1.90735e-05C1137.6 -1.90735e-05 1209.6 -1.90735e-05 1280 -1.90735e-05C1350.4 -1.90735e-05 1422.4 -1.90735e-05 1492.8 -1.90735e-05C1564.8 -1.90735e-05 1635.2 -1.90735e-05 1707.2 -1.90735e-05C1777.6 -1.90735e-05 1849.6 -1.90735e-05 1884.8 -1.90735e-05H1920V248.667Z" fill="#BBD4EA" fill-opacity="0.21"/>
<path fill-rule="evenodd" clip-rule="evenodd" d="M0 352.674L35.64 308.59C71.28 264.506 144.18 176.337 215.46 124.905C288.36 73.4738 359.64 58.779 432.54 58.779C503.82 58.779 576.72 73.4738 648 102.863C719.28 132.253 792.18 176.337 863.46 191.032C936.36 205.727 1007.64 191.032 1080.54 213.074C1151.82 235.116 1224.72 293.895 1296 330.632C1367.28 367.369 1440.18 382.064 1511.46 367.369C1584.36 352.674 1655.64 308.59 1728.54 301.243C1799.82 293.895 1872.72 323.285 1908.36 337.979L1944 352.674V7.84361e-06H1908.36C1872.72 7.84361e-06 1799.82 7.84361e-06 1728.54 7.84361e-06C1655.64 7.84361e-06 1584.36 7.84361e-06 1511.46 7.84361e-06C1440.18 7.84361e-06 1367.28 7.84361e-06 1296 7.84361e-06C1224.72 7.84361e-06 1151.82 7.84361e-06 1080.54 7.84361e-06C1007.64 7.84361e-06 936.36 7.84361e-06 863.46 7.84361e-06C792.18 7.84361e-06 719.28 7.84361e-06 648 7.84361e-06C576.72 7.84361e-06 503.82 7.84361e-06 432.54 7.84361e-06C359.64 7.84361e-06 288.36 7.84361e-06 215.46 7.84361e-06C144.18 7.84361e-06 71.28 7.84361e-06 35.64 7.84361e-06H0V352.674Z" fill="#BBD4EA" fill-opacity="0.21"/>
<path fill-rule="evenodd" clip-rule="evenodd" d="M0 71.9694L52.8 89.9618C107.2 107.954 212.8 143.939 320 167.929C427.2 191.918 532.8 203.913 640 179.924C747.2 155.934 852.8 95.9592 960 101.957C1067.2 107.954 1172.8 179.924 1280 185.921C1387.2 191.918 1492.8 131.944 1600 107.954C1707.2 83.9643 1812.8 95.9592 1867.2 101.957L1920 107.954V-1.79353e-06H1867.2C1812.8 -1.79353e-06 1707.2 -1.79353e-06 1600 -1.79353e-06C1492.8 -1.79353e-06 1387.2 -1.79353e-06 1280 -1.79353e-06C1172.8 -1.79353e-06 1067.2 -1.79353e-06 960 -1.79353e-06C852.8 -1.79353e-06 747.2 -1.79353e-06 640 -1.79353e-06C532.8 -1.79353e-06 427.2 -1.79353e-06 320 -1.79353e-06C212.8 -1.79353e-06 107.2 -1.79353e-06 52.8 -1.79353e-06H0V71.9694Z" fill="#BBD4EA" fill-opacity="0.21"/>
<path fill-rule="evenodd" clip-rule="evenodd" d="M0 957.429L40 967.643C80 977.857 160 998.286 240 977.857C320 957.429 400 896.143 480 885.929C560 875.714 640 916.571 720 947.214C800 977.857 880 998.286 960 947.214C1040 896.143 1120 773.571 1200 712.286C1280 651 1360 651 1440 681.643C1520 712.286 1600 773.571 1680 773.571C1760 773.571 1840 712.286 1880 681.643L1920 651V1080H1880C1840 1080 1760 1080 1680 1080C1600 1080 1520 1080 1440 1080C1360 1080 1280 1080 1200 1080C1120 1080 1040 1080 960 1080C880 1080 800 1080 720 1080C640 1080 560 1080 480 1080C400 1080 320 1080 240 1080C160 1080 80 1080 40 1080H0V957.429Z" fill="#9EA7C8" fill-opacity="0.39"/>
<path fill-rule="evenodd" clip-rule="evenodd" d="M0 751L80 790.186C160 829.372 320 907.744 480 923.256C640 938.767 800 892.233 960 868.558C1120 844.883 1280 844.883 1440 836.72C1600 829.372 1760 813.861 1840 805.697L1920 797.533V1080H1840C1760 1080 1600 1080 1440 1080C1280 1080 1120 1080 960 1080C800 1080 640 1080 480 1080C320 1080 160 1080 80 1080H0V751Z" fill="#C7CAD7" fill-opacity="0.23"/>
<path fill-rule="evenodd" clip-rule="evenodd" d="M0 902.4H32C64 902.4 128 902.4 192 913.5C256 924.6 320 946.8 384 946.8C448 946.8 512 924.6 576 913.5C640 902.4 704 902.4 768 928.3C832 954.2 896 1006 960 1013.4C1024 1020.8 1088 983.8 1152 969C1216 954.2 1280 961.6 1344 961.6C1408 961.6 1472 954.2 1536 943.1C1600 932 1664 917.2 1728 902.4C1792 887.6 1856 872.8 1888 865.4L1920 858V1080H1888C1856 1080 1792 1080 1728 1080C1664 1080 1600 1080 1536 1080C1472 1080 1408 1080 1344 1080C1280 1080 1216 1080 1152 1080C1088 1080 1024 1080 960 1080C896 1080 832 1080 768 1080C704 1080 640 1080 576 1080C512 1080 448 1080 384 1080C320 1080 256 1080 192 1080C128 1080 64 1080 32 1080H0V902.4Z" fill="#A3AACF" fill-opacity="0.27"/>
</svg>
